# xmcd
#
# Track frame offsets:
#	150
#	21017
#	46072
#	67697
#	84907
#	108947
#	126395
#	143872
#	172230
#	194787
#	219065
#
# Disc length: 3135 seconds
#
# Revision: 1
# Processed by: cddbd v1.5.1PL0 Copyright (c) Steve Scherf et al.
# Submitted via: CDex 1.50Beta5
#
DISCID=930c3d0b
DTITLE=RD - WORDS
DYEAR=1993
DGENRE=Rock
TTITLE0=DEAD or LOVE
TTITLE1=バラードあふれだして
TTITLE2=COOL’S CLOWN
TTITLE3=LORD OF THE ROAD
TTITLE4=Leave for SCENE
TTITLE5=YOU MISS YOU
TTITLE6=灰とダイヤモンド
TTITLE7=EVIL GIRL
TTITLE8=GAMBLIN’ DRUNKER
TTITLE9=DESPERADO ALONE
TTITLE10=Don’t Stop! Carry On!
EXTD=
EXTT0=
EXTT1=
EXTT2=
EXTT3=
EXTT4=
EXTT5=
EXTT6=
EXTT7=
EXTT8=
EXTT9=
EXTT10=
PLAYORDER=
